# xmcd
#
# Track frame offsets:
# 150
# 16305
# 36143
# 55108
# 79094
# 97735
# 111739
# 124344
# 137552
# 155772
# 164317
# 177438
# 194850
# 228904
#
# Disc length: 3177 seconds
#
#
# Revision: 0
# Processed by: cddbd v1.5.2PL0 Copyright (c) Steve Scherf et al.
# Submitted via: FreeRIP 2.945 
#
DISCID=be0c670e
DTITLE=Πράσινα τραγούδια - Διάφοροι καλλιτέχνες - Πράσινα τραγούδια
DYEAR=1900
DGENRE=
TTITLE0=Ο εφιάλτης της Περσεφόνης - Μαρία Φαραντούρη
TTITLE1=Ο Ρομπέν των καμένων δασών - Ορφέας Περίδης
TTITLE2=Το φαινόμενο του θερμοκηπίου - Ψαραντώνης
TTITLE3=Μάνα Γη - Χάρης Κατσιμίχας, D.A. Jusid, A. Diaz
TTITLE4=Στη λίμνη με τις παπαρούνες - Κρίστη Στασινοπούλου
TTITLE5=Στα καμένα - Βαγγέλης Ασημάκης
TTITLE6=Στάχτη στα μπαλκόνια - Όναρ
TTITLE7=Πίσω απ' τη βιτρίνα - Γιάννης Κούτρας
TTITLE8=Το χρώμα - Κώστας Τηλαβερίδης
TTITLE9=Το ηλιακό λεωφορείο - Σαβίνα Γιαννάτου
TTITLE10=Το πράσινο ποτάμι - Πόπη Αστεριάδη
TTITLE11=Τόσο λάθος διατροφή - ’ρτεμις Βαβάτσικα, Τ. Χριστογιαννόπουλος
TTITLE12=Anassa - Palyrria
TTITLE13=Ιώδιο, Καίσιο, Στρόντιο - ’κης Πάνου κ.α
EXTD=
EXTT0=
EXTT1=
EXTT2=
EXTT3=
EXTT4=
EXTT5=
EXTT6=
EXTT7=
EXTT8=
EXTT9=
EXTT10=
EXTT11=
EXTT12=
EXTT13=
PLAYORDER=
